<?xml version="1.0" encoding="utf-8"?>
<!-- Generator: Adobe Illustrator 17.1.0, SVG Export Plug-In . SVG Version: 6.00 Build 0)  -->
<!DOCTYPE svg PUBLIC "-//W3C//DTD SVG 1.1//EN" "http://www.w3.org/Graphics/SVG/1.1/DTD/svg11.dtd">
<svg version="1.1" id="Layer_1" xmlns="http://www.w3.org/2000/svg" xmlns:xlink="http://www.w3.org/1999/xlink" x="0px" y="0px"
	 viewBox="0 0 800 800" enable-background="new 0 0 800 800" xml:space="preserve">
<g>
	<path fill="#2D2D2D" d="M696.6,687.2h1c57.6,0,102.4-49.6,102.4-111.3V443.7c0-47.5-26.8-88-65.9-104.3l0,0
		c-23.8,43.2-68.6,72.9-121.3,72.9h-19.6v79.8c0,15.1-13.4,27.4-28.6,27.4s-28.6-12.3-28.6-27.4v-79.8H264v79.8
		c0,15.1-13.4,27.4-28.6,27.4c-15.1,0-28.6-12.3-28.6-27.4v-79.8H189c-52.7,0-98.4-29.7-122.2-72.9C27.7,355.7,0,396.2,0,443.7
		v132.1c0,61.7,46.7,111.3,104.3,111.3h-0.9 M734.1,339.4"/>
	<path fill="#2D2D2D" d="M216.5,792.6h368.9c60,0,109.4-49,112-108.8h-593C107.1,743.6,156.4,792.6,216.5,792.6L216.5,792.6z
		 M216.5,792.6"/>
	<path fill="#2D2D2D" d="M308.7,99.4H189c-46.7,0-85.6,38.3-85.6,85.1V272c0,46.7,38.9,85.9,85.6,85.9h17.8v-72.1
		c0-15.1,13.4-27.4,28.6-27.4c15.1,0,28.6,12.3,28.6,27.4v72.1h272.1v-72.1c0-15.1,13.4-27.4,28.6-27.4s28.6,12.3,28.6,27.4v72.1
		h19.6c46.7,0,83.8-39.1,83.8-85.9v-87.6c0-46.7-37-85.1-83.8-85.1H493.2c0-19-6.7-39.3-18.1-54.7C458.2,22,431.3,7.4,400.9,7.4
		c-30.3,0-57.3,14.6-74.1,37.3C315.4,60,308.7,80.4,308.7,99.4L308.7,99.4z M447.7,97.3h-93.5c0-23.8,21-46.7,46.7-46.7
		C426.7,50.5,447.7,73.5,447.7,97.3L447.7,97.3z M438.3,99.4"/>
</g>
</svg>
